<?xml version="1.0" encoding="UTF-8"?>
<svg width="32px" height="32px" viewBox="0 0 32 32" version="1.1" xmlns="http://www.w3.org/2000/svg" xmlns:xlink="http://www.w3.org/1999/xlink">
    <!-- Generator: Sketch 49.3 (51167) - http://www.bohemiancoding.com/sketch -->
    <title>login</title>
    <desc>Created with Sketch.</desc>
    <defs></defs>
    <g id="Page-1" stroke="none" stroke-width="1" fill="none" fill-rule="evenodd">
        <g id="login">
            <rect id="Rectangle" fill-opacity="0" fill="#FFFFFF" x="0" y="0" width="32" height="32"></rect>
            <path d="M16.0017289,0.0388832215 C24.8275007,0.0388832215 31.9822389,7.19362148 31.9822389,16.019447 C31.9822389,24.8452725 24.8275007,32.0000107 16.0017289,32.0000107 C7.17590336,32.0000107 0.0211651007,24.8452725 0.0211651007,16.019447 C0.0211651007,7.19362148 7.17590336,0.0388832215 16.0017289,0.0388832215 Z M16.0017289,2.18653423 C14.1333262,2.18653423 12.3219436,2.55201074 10.6179436,3.27270872 C8.97101745,3.96929933 7.49144698,4.9670443 6.22035973,6.23807785 C4.94927248,7.50921879 3.95158121,8.98873557 3.25493691,10.6357154 C2.53423893,12.3397154 2.16881611,14.1510443 2.16881611,16.019447 C2.16881611,17.8878497 2.53423893,19.6991785 3.25493691,21.4031785 C3.95158121,23.0501047 4.94927248,24.5296752 6.22035973,25.8008161 C7.49144698,27.0719034 8.97101745,28.0695946 10.6179436,28.7661315 C12.3219436,29.4868832 14.1333262,29.8523597 16.0017289,29.8523597 C17.8700242,29.8523597 19.6814067,29.4868832 21.3854067,28.7661315 C23.0323866,28.0695946 24.5119034,27.0719034 25.7829906,25.8008161 C27.0540779,24.5296752 28.0518228,23.0501047 28.7484134,21.4031785 C29.4691651,19.6991785 29.8345879,17.8878497 29.8345879,16.019447 C29.8345879,14.1510443 29.4691651,12.3397154 28.7484134,10.6357154 C28.0518228,8.98873557 27.0540779,7.50921879 25.7829906,6.23807785 C24.5119034,4.9670443 23.0323866,3.96929933 21.3854067,3.27270872 C19.6814067,2.55201074 17.8700242,2.18653423 16.0017289,2.18653423 Z" id="Combined-Shape" fill="#F5A623"></path>
            <path d="M25.2199839,19.4737826 L25.2209839,19.4737826 L25.2199839,19.4737826 Z M17.4357154,22.8008161 L17.4223463,24.4732993 L19.0948295,24.4599302 L24.6505342,18.9043329 C25.1079302,18.4468832 25.1079302,17.7026148 24.6505342,17.2451651 C24.1931383,16.7877691 23.4488698,16.7877691 22.9913664,17.2451651 L17.4357154,22.8008161 Z M16.6104268,26.0905342 C16.3969503,26.0905342 16.1920644,26.0057557 16.0409772,25.8546685 C15.8883329,25.7020242 15.8033933,25.4945611 15.8050577,25.2787221 L15.8276617,22.4581047 C15.8293799,22.2467221 15.914051,22.0445208 16.0635275,21.895098 L21.8524134,16.1062121 C22.9377826,15.0207356 24.7040107,15.0207893 25.7894336,16.1061584 C26.3152322,16.6320107 26.604843,17.3311248 26.604843,18.0746953 C26.604843,18.8183732 26.3152322,19.5174336 25.7894336,20.0432322 L20.0005477,25.8321181 C19.8511248,25.9815946 19.6488698,26.0662658 19.4375409,26.0679839 L16.6169235,26.0904805 C16.6147758,26.0905342 16.6126282,26.0905342 16.6104268,26.0905342 Z M15.2851114,19.6721181 C15.2851114,19.2273396 14.9245208,18.866749 14.4797423,18.866749 L11.7401987,18.866749 C11.2954201,18.866749 10.9348295,19.2273396 10.9348295,19.6721181 C10.9348295,20.1169503 11.2954201,20.4774872 11.7401987,20.4774872 L14.4797423,20.4774872 C14.9245208,20.4774872 15.2851114,20.1169503 15.2851114,19.6721181 Z M18.3289772,16.019447 C18.3289772,15.5746685 17.9683866,15.2140779 17.5236081,15.2140779 L11.7401987,15.2140779 C11.2954201,15.2140779 10.9348295,15.5746685 10.9348295,16.019447 C10.9348295,16.4642255 11.2954201,16.8248161 11.7401987,16.8248161 L17.5236081,16.8248161 C17.9683866,16.8248161 18.3289772,16.4642255 18.3289772,16.019447 Z M21.0685745,12.3667758 C21.0685745,11.9219973 20.7079839,11.5614067 20.2632054,11.5614067 L11.7401987,11.5614067 C11.2954201,11.5614067 10.9348295,11.9219973 10.9348295,12.3667758 C10.9348295,12.8115544 11.2954201,13.172145 11.7401987,13.172145 L20.2632054,13.172145 C20.7079839,13.172145 21.0685745,12.8115544 21.0685745,12.3667758 Z M13.800655,25.3033664 C13.800655,24.7102926 13.3199034,24.2295409 12.7268295,24.2295409 L11.3142121,24.2295409 C10.1271517,24.2295409 9.16135302,23.241353 9.16135302,22.0266953 L9.16135302,10.0121987 C9.16135302,8.79754094 10.1271517,7.80929933 11.3142121,7.80929933 L20.6891383,7.80929933 C21.876306,7.80929933 22.842051,8.79754094 22.842051,10.0121987 L22.842051,12.6938631 C22.842051,13.2869369 23.3228027,13.7676886 23.9158765,13.7676886 C24.5089503,13.7676886 24.989702,13.2869369 24.989702,12.6938631 L24.989702,10.0121987 C24.989702,7.61332617 23.0604671,5.66170201 20.6891383,5.66170201 L11.3142121,5.66170201 C8.94293691,5.66170201 7.01370201,7.61332617 7.01370201,10.0121987 L7.01370201,22.0266953 C7.01370201,24.4255678 8.94293691,26.3771919 11.3142121,26.3771919 L12.7268295,26.3771919 C13.3199034,26.3771919 13.800655,25.8964403 13.800655,25.3033664 Z" id="Fill-4" fill="#F5A623"></path>
        </g>
    </g>
</svg>