<?xml version="1.0" encoding="UTF-8"?>
<svg width="750px" height="204px" viewBox="0 0 750 204" version="1.1" xmlns="http://www.w3.org/2000/svg" xmlns:xlink="http://www.w3.org/1999/xlink">
    <!-- Generator: Sketch 49.3 (51167) - http://www.bohemiancoding.com/sketch -->
    <title>logo</title>
    <desc>Created with Sketch.</desc>
    <defs></defs>
    <g id="Page-1" stroke="none" stroke-width="1" fill="none" fill-rule="evenodd">
        <g id="logo">
            <rect id="Rectangle-3" x="0" y="0" width="750" height="204"></rect>
            <polygon id="Fill-4" fill="#FFFFFF" points="288.3297 90.0517 264.6117 90.0517 264.6117 56.3037 354.4787 56.3037 354.4787 90.0517 330.7607 90.0517 330.7607 184.9347 288.3297 184.9347"></polygon>
            <polygon id="Path" fill="#000000" points="312.0527 169.5067 312.0527 76.3597 339.6277 76.3597 339.6277 71.7317 279.4617 71.7317 279.4617 76.3597 307.0377 76.3597 307.0377 169.5067"></polygon>
            <path d="M500.2692,100.0799 C497.9592,98.0259 495.0642,96.4499 491.5922,95.3569 C488.1232,94.2659 484.7152,93.7179 481.3722,93.7179 C477.6392,93.7179 474.2362,94.3909 471.1522,95.7409 C468.0632,97.0909 465.3962,98.9569 463.1452,101.3349 C460.8952,103.7149 459.1262,106.5739 457.8442,109.9149 C456.5562,113.2609 455.9172,116.8589 455.9172,120.7169 C455.9172,124.5709 456.6212,128.1739 458.0382,131.5149 C459.4502,134.8599 461.3772,137.7199 463.8222,140.0959 C466.2622,142.4779 469.1242,144.3399 472.4022,145.6889 C475.6802,147.0389 479.1862,147.7159 482.9142,147.7159 C487.2852,147.7159 491.2722,146.7819 494.8702,144.9189 C498.4682,143.0569 501.5532,140.5149 504.1272,137.3009 L492.5542,137.3009 L492.5542,110.3019 L542.1212,110.3019 L542.1212,153.1149 C539.1622,158.3869 535.6242,163.1749 531.5122,167.4809 C527.3952,171.7899 522.8032,175.4849 517.7222,178.5689 C512.6422,181.6549 507.1462,184.0359 501.2372,185.7049 C495.3192,187.3749 489.2122,188.2129 482.9142,188.2129 C473.6572,188.2129 464.9152,186.4759 456.6852,183.0059 C448.4572,179.5349 441.2892,174.7789 435.1852,168.7339 C429.0782,162.6929 424.2532,155.5579 420.7202,147.3289 C417.1812,139.1019 415.4182,130.2319 415.4182,120.7169 C415.4182,111.4599 417.0852,102.7169 420.4322,94.4889 C423.7712,86.2619 428.3692,79.0939 434.2182,72.9859 C440.0662,66.8809 447.0122,62.0599 455.0472,58.5219 C463.0812,54.9869 471.7302,53.2179 480.9872,53.2179 C488.1832,53.2179 494.4212,53.9259 499.6902,55.3389 C504.9602,56.7559 509.3962,58.3629 512.9992,60.1619 C517.2412,62.2199 520.7742,64.4699 523.6032,66.9109 L500.2692,100.0799 Z" id="Fill-6" fill="#FFFFFF"></path>
            <path d="M502.2002,75.2039 C500.5292,74.4309 498.6632,73.7889 496.6062,73.2749 C494.8052,72.7619 492.6842,72.3099 490.2442,71.9259 C487.7992,71.5389 485.0992,71.3469 482.1452,71.3469 C475.3292,71.3469 468.9622,72.5689 463.0532,75.0099 C457.1352,77.4539 451.9902,80.8279 447.6242,85.1349 C443.2532,89.4429 439.8112,94.6179 437.3062,100.6589 C434.7972,106.7039 433.5472,113.3859 433.5472,120.7169 C433.5472,128.0449 434.8292,134.7309 437.4042,140.7709 C439.9732,146.8169 443.5072,151.9889 448.0082,156.2959 C452.5092,160.6039 457.7462,163.9799 463.7242,166.4209 C469.7032,168.8629 476.0972,170.0839 482.9142,170.0839 C491.7862,170.0839 499.8202,167.9979 507.0212,163.8159 C514.2172,159.6419 520.0702,154.0779 524.5712,147.1369 L524.5712,121.8719 L504.1272,121.8719 L504.1272,126.4999 L519.5562,126.4999 L519.5562,145.7869 C515.5692,151.6999 510.3962,156.3929 504.0292,159.8639 C497.6672,163.3349 490.6292,165.0709 482.9142,165.0709 C476.7412,165.0709 470.9902,164.0109 465.6552,161.8899 C460.3162,159.7669 455.6262,156.7469 451.5782,152.8249 C447.5262,148.9049 444.3462,144.2119 442.0302,138.7459 C439.7152,133.2839 438.5562,127.2729 438.5562,120.7169 C438.5562,114.1589 439.6822,108.1509 441.9322,102.6839 C444.1832,97.2209 447.2672,92.5299 451.1892,88.6049 C455.1112,84.6849 459.7052,81.6639 464.9792,79.5429 C470.2492,77.4199 475.9722,76.3589 482.1452,76.3589 C484.4562,76.3589 486.6412,76.5539 488.7022,76.9379 C490.7542,77.3249 492.5542,77.7089 494.1012,78.0959 C495.8982,78.6099 497.5702,79.1259 499.1122,79.6379 L502.2002,75.2039 Z" id="Path" fill="#000000"></path>
            <polygon id="Path" fill="#FFFFFF" points="552.7258 56.3037 628.5158 56.3037 628.5158 90.0517 593.7988 90.0517 593.7988 104.3237 627.9368 104.3237 627.9368 136.3357 593.7988 136.3357 593.7988 151.1867 629.8618 151.1867 629.8618 184.9347 552.7258 184.9347"></polygon>
            <polygon id="Fill-8" fill="#000000" points="615.5908 169.5067 615.5908 164.8787 577.0228 164.8787 577.0228 122.6457 613.6648 122.6457 613.6648 118.0147 577.0228 118.0147 577.0228 76.3597 615.5908 76.3597 615.5908 71.7317 572.0078 71.7317 572.0078 169.5067"></polygon>
            <path d="M641.4299,56.3044 L685.7819,56.3044 C694.0109,56.3044 701.6279,57.3964 708.6349,59.5824 C715.6409,61.7704 721.7159,64.9814 726.8599,69.2234 C732.0009,73.4674 736.0209,78.7074 738.9139,84.9424 C741.8039,91.1804 743.2529,98.3454 743.2529,106.4454 C743.2529,112.8734 742.3509,118.3384 740.5539,122.8364 C738.7519,127.3374 736.7609,131.0664 734.5749,134.0224 C732.0009,137.3664 729.1069,140.1934 725.8979,142.5074 L749.9999,184.9344 L701.7899,184.9344 L682.5039,152.3434 L682.5039,184.9344 L641.4299,184.9344 L641.4299,56.3044 Z" id="Path" fill="#FFFFFF"></path>
            <path d="M681.5409,140.1934 C686.5559,140.1934 691.4419,139.6814 696.1959,138.6514 L714.5209,169.5064 L720.4979,169.5064 L701.2119,137.1064 C708.1529,134.6654 713.6819,130.9064 717.7989,125.8264 C721.9099,120.7484 723.9669,114.1594 723.9669,106.0584 C723.9669,100.4044 722.8739,95.4514 720.6889,91.2094 C718.5019,86.9654 715.5109,83.3974 711.7229,80.5064 C707.9259,77.6144 703.4569,75.4284 698.3169,73.9494 C693.1729,72.4724 687.5839,71.7314 681.5409,71.7314 L660.7119,71.7314 L660.7119,169.5064 L665.7269,169.5064 L665.7269,140.1934 L681.5409,140.1934 Z" id="Path" fill="#000000"></path>
            <path d="M665.7269,135.5644 L665.7269,76.3594 L681.5409,76.3594 C693.2369,76.3594 702.3979,78.9334 709.0239,84.0744 C715.6409,89.2184 718.9509,96.5464 718.9509,106.0584 C718.9509,115.5744 715.6409,122.8704 709.0239,127.9474 C702.3979,133.0274 693.2369,135.5644 681.5409,135.5644 L665.7269,135.5644 Z" id="Fill-10" fill="#FFFFFF"></path>
            <path d="M682.5039,119.5584 L684.6249,119.5584 C689.5099,119.5584 693.6589,118.4684 697.0669,116.2804 C700.4709,114.0944 702.1749,110.4314 702.1749,105.2874 C702.1749,100.1464 700.4709,96.4814 697.0669,94.2964 C693.6589,92.1104 689.5099,91.0174 684.6249,91.0174 L682.5039,91.0174 L682.5039,119.5584 Z" id="Path" fill="#000000"></path>
            <path d="M398.7588,91.7479 C401.7438,91.7479 404.5548,90.9989 407.0268,89.6909 L407.0268,184.9349 L363.4428,184.9349 L363.4428,88.4829 C366.3358,90.5309 369.8578,91.7479 373.6638,91.7479 C378.5108,91.7479 382.9748,89.7949 386.2118,86.5139 C389.4488,89.7949 393.9118,91.7479 398.7588,91.7479 Z M388.0801,46.4505 C403.5921,47.8925 411.9621,66.9905 411.9621,74.0055 C411.9621,81.2975 406.0511,87.2085 398.7591,87.2085 C392.8381,87.2085 387.8861,83.2835 386.2121,77.9135 C384.5371,83.2835 379.5861,87.2085 373.6641,87.2085 C366.3721,87.2085 360.4611,81.2975 360.4611,74.0055 C360.4611,67.6495 367.3321,51.3685 380.1631,47.2935 C381.3261,47.2535 382.6751,47.4005 383.5761,48.0895 C383.8821,48.3235 384.8131,49.0345 384.8251,51.4715 C384.8311,52.7225 385.8461,53.7315 387.0951,53.7315 L387.1051,53.7315 C388.3591,53.7255 389.3711,52.7045 389.3651,51.4505 C389.3541,49.2365 388.8031,47.6295 388.0801,46.4505 Z M391.9092,40.1683 C397.2712,24.1503 402.9672,21.5793 405.6402,23.2133 C408.3142,24.8473 407.7042,28.9743 402.0082,31.2283 C396.6902,33.3313 391.9092,40.1683 391.9092,40.1683 Z M386.4004,41.2162 C376.8314,8.2372 393.8634,-2.4348 397.9044,0.4502 C401.9444,3.3352 401.6654,9.5852 393.0914,19.1512 C384.5184,28.7162 386.4004,41.2162 386.4004,41.2162 Z M377.3721,31.9442 C364.3391,19.9482 365.0281,12.9772 368.2101,10.8382 C371.3931,8.6992 375.1941,10.9842 374.1851,17.8312 C373.2431,24.2222 377.3721,31.9442 377.3721,31.9442 Z" id="Combined-Shape" fill="#FAC328"></path>
            <path d="M123.0923,179.7791 C127.4793,179.3381 119.9753,179.4721 118.7803,178.8151 C118.9823,180.1621 116.1643,178.4531 116.3883,179.7791 C119.1283,179.6931 121.9433,179.8951 123.0923,179.7791 M72.3213,182.6541 C80.2513,182.9421 85.1063,180.0911 89.5553,176.9101 C83.3083,175.4861 77.2983,173.8521 70.8793,172.5931 C71.6393,175.6641 72.1243,179.0261 72.3213,182.6541 M44.0533,184.0991 C48.3173,183.7391 52.4523,183.2241 56.9953,183.1381 C55.1583,175.7161 51.5883,170.0121 49.7953,162.5381 C48.3963,162.5381 48.1803,161.2861 46.9273,161.0971 C45.9803,168.7791 45.3963,176.7921 44.0533,184.0991 M3.3353,134.7431 C4.1993,135.5111 3.8223,130.0641 3.8223,127.0791 C3.8223,123.3661 4.1793,119.0771 3.3353,117.0251 C2.1433,122.8071 3.7123,128.3981 3.3353,134.7431 M47.8833,119.9011 C46.5663,119.4461 48.2003,113.5471 46.9273,114.6361 C47.1943,116.1561 46.1893,121.4191 47.8833,119.9011 M50.7583,112.7151 C50.6083,111.5801 51.1603,107.2441 50.2783,108.4111 C50.4473,109.5671 49.8763,113.8891 50.7583,112.7151 M166.6753,77.7481 C162.7703,76.0811 155.6453,75.0481 151.8323,74.8811 C156.4743,85.2391 157.7883,98.9601 160.9473,110.8121 C166.8073,106.3601 172.0523,99.5981 178.6573,94.5151 C185.0473,89.6271 191.7573,82.8231 199.2503,80.6241 C201.7773,79.8851 204.5923,80.3981 206.9253,79.6651 C211.9833,78.0681 215.7143,74.3161 220.3483,71.5231 C204.2913,72.1531 187.6173,78.9891 166.6753,77.7481 M51.7173,94.0471 C52.0633,100.9781 51.5693,112.6641 51.7173,120.3751 C63.1673,129.0731 78.4853,114.7211 87.6513,116.0771 C89.7813,116.3751 92.2023,119.0621 94.3413,121.8161 C95.8643,123.7681 98.8213,127.0721 99.6063,129.0081 C102.0423,134.7431 100.4723,140.7511 105.3693,143.8511 C111.6543,139.7561 118.2233,135.9521 129.3343,136.6661 C127.1783,126.4761 121.8603,109.9961 122.6113,93.0681 C122.8743,87.2521 123.7223,80.3511 124.5373,74.4051 C126.3513,60.8781 127.1673,50.3491 137.9463,47.0981 C140.1023,46.4371 142.2533,46.6331 144.1753,47.0981 C151.6353,48.8991 159.4913,52.7931 169.5523,52.8381 C170.5023,52.6341 169.9403,50.9881 171.4683,51.4141 C180.3613,52.3291 189.3593,53.9651 200.6873,53.3111 C210.3033,52.7791 220.8303,49.7011 228.0113,50.9291 C231.7553,51.5851 235.2753,55.9791 239.0003,55.7141 C243.3393,55.4221 249.1043,47.6981 251.9603,45.1721 C256.5403,41.1391 260.0093,38.2381 264.8893,35.1241 C272.5113,34.7791 279.3773,31.5811 286.4403,28.4191 C286.7683,20.0721 296.3823,22.4971 297.4483,29.3531 C298.7533,37.7451 291.9683,44.8721 287.3873,46.6191 C290.9593,48.3971 296.7293,46.6571 299.8493,47.0981 L299.8493,52.8381 C289.9953,53.3751 279.0173,59.1541 270.1433,54.7711 C267.1133,55.3931 267.1363,59.0951 263.9283,59.5541 C265.2013,63.1771 263.5683,66.4481 262.9653,69.6101 C260.2313,71.4991 257.2703,70.1091 254.8283,71.0371 C250.5333,72.6841 249.1963,78.3651 245.7163,80.6241 C246.9103,82.4751 249.2653,83.1491 251.4623,83.9811 C250.9293,86.4781 248.7783,87.3541 247.6373,89.2321 C245.4953,87.8871 243.0163,86.8501 240.9413,85.4021 C231.7553,92.1791 221.1423,95.0991 210.7453,99.7851 C200.0733,104.6161 195.1023,119.1931 188.7213,130.4541 C184.1913,138.3941 177.8013,146.1031 175.7853,153.9131 C174.1413,160.2231 173.7993,166.0951 170.0393,171.1591 C164.0163,179.3021 147.7733,186.7041 135.0803,181.6981 C128.5963,185.9401 120.7723,184.8231 113.5103,186.5031 C109.9393,187.3011 107.3123,190.3781 103.9213,190.8001 C100.8393,191.1911 97.3353,189.1971 93.8833,189.8451 C85.5343,191.3931 71.6783,214.5981 64.1733,197.9901 C57.2413,197.1901 38.7113,206.1751 32.5633,202.3071 C28.9553,200.0031 28.2613,190.2411 28.2613,185.0491 C28.2273,175.8771 29.0193,165.7191 29.1953,157.7551 C26.6623,157.8001 24.6423,164.7851 20.1093,159.6631 C18.6293,160.9101 15.9473,160.9281 14.3573,162.0641 C12.5913,162.0611 6.8413,159.1331 8.1323,162.0641 C2.8163,160.7721 1.5903,154.1681 0.9403,149.1171 C-1.6747,129.1041 1.2523,98.5331 8.6173,83.9811 C11.8513,77.5861 17.8153,71.7651 26.8063,70.5701 C31.0053,70.0261 39.4373,71.1461 42.6183,73.4401 C46.3763,76.1321 54.9393,92.9631 56.0293,98.8251 C56.4193,100.9291 54.8903,102.8821 56.5083,104.1031 C54.0293,103.5441 52.2693,98.1231 51.7173,94.0471" id="Fill-1" fill="#FFFFFF"></path>
        </g>
    </g>
</svg>