<?xml version="1.0" encoding="UTF-8"?>
<svg width="32px" height="32px" viewBox="0 0 32 32" version="1.1" xmlns="http://www.w3.org/2000/svg" xmlns:xlink="http://www.w3.org/1999/xlink">
    <!-- Generator: Sketch 49.3 (51167) - http://www.bohemiancoding.com/sketch -->
    <title>user</title>
    <desc>Created with Sketch.</desc>
    <defs></defs>
    <g id="Page-1" stroke="none" stroke-width="1" fill="none" fill-rule="evenodd">
        <g id="user">
            <rect id="Rectangle-2" fill-opacity="0" fill="#FFFFFF" x="0" y="0" width="32" height="32"></rect>
            <path d="M15.9805745,0.0388778523 C24.8063463,0.0388778523 31.9611383,7.19361611 31.9611383,16.0194416 C31.9611383,24.8452671 24.8063463,32.0000054 15.9805745,32.0000054 C7.15474899,32.0000054 1.0738255e-05,24.8452671 1.0738255e-05,16.0194416 C1.0738255e-05,7.19361611 7.15474899,0.0388778523 15.9805745,0.0388778523 Z M15.9805745,2.18652886 C14.1121718,2.18652886 12.300843,2.55200537 10.596843,3.27270336 C8.94986309,3.96934765 7.47029262,4.96703893 6.19920537,6.23807248 C4.92811812,7.50921342 3.93042685,8.9887302 3.23383624,10.6357101 C2.51308456,12.3397101 2.14766174,14.1510389 2.14766174,16.0194416 C2.14766174,17.8878443 2.51308456,19.6991732 3.23383624,21.4031732 C3.93042685,23.0500993 4.92811812,24.5296698 6.19920537,25.8008107 C7.47029262,27.071898 8.94986309,28.0695893 10.596843,28.7661262 C12.300843,29.4868779 14.1121718,29.8523544 15.9805745,29.8523544 C17.8489235,29.8523544 19.6602523,29.4868779 21.3642523,28.7661262 C23.0112322,28.0695893 24.4908027,27.071898 25.7618899,25.8008107 C27.0329772,24.5296698 28.0306685,23.0500993 28.7272591,21.4031732 C29.4480107,19.6991732 29.8134872,17.8878443 29.8134872,16.0194416 C29.8134872,14.1510389 29.4480107,12.3397101 28.7272591,10.6357101 C28.0306685,8.9887302 27.0329772,7.50921342 25.7618899,6.23807248 C24.4908027,4.96703893 23.0112322,3.96934765 21.3642523,3.27270336 C19.6602523,2.55200537 17.8489235,2.18652886 15.9805745,2.18652886 Z" id="Combined-Shape" fill="#F5A623"></path>
            <path d="M23.9068027,20.8185826 C22.4503732,17.4310926 20.1619436,15.1062604 15.9805745,15.1062604 C11.7992054,15.1062604 9.51072215,17.4310926 8.05434631,20.8185826 C7.13891007,22.9477101 8.48623893,25.4555758 10.5266148,25.4555758 L21.4344805,25.4555758 C23.4748564,25.4555758 24.8221852,22.9477101 23.9068027,20.8185826 M20.6986416,9.47506577 C20.6986416,12.080757 18.5862658,14.1931329 15.9805745,14.1931329 C13.3748295,14.1931329 11.2624537,12.080757 11.2624537,9.47506577 C11.2624537,6.86932081 13.3748295,4.75694497 15.9805745,4.75694497 C18.5862658,4.75694497 20.6986416,6.86932081 20.6986416,9.47506577" id="Fill-1" fill="#F5A623"></path>
        </g>
    </g>
</svg>